<?xml version="1.0" encoding="utf-8"?>
<!-- Generator: Adobe Illustrator 21.0.0, SVG Export Plug-In . SVG Version: 6.00 Build 0)  -->
<svg version="1.1" id="圖層_1" xmlns="http://www.w3.org/2000/svg" xmlns:xlink="http://www.w3.org/1999/xlink" x="0px" y="0px"
	 viewBox="0 0 33 33" style="enable-background:new 0 0 33 33;" xml:space="preserve">
<path d="M16.5,0C7.4,0,0,7.4,0,16.5S7.4,33,16.5,33S33,25.6,33,16.5S25.6,0,16.5,0z M14.3,22l-3,2.9c-0.3,0.3-0.7,0.3-1,0l-0.8-0.8
	l4-3.8l0.8,0.8C14.5,21.3,14.5,21.7,14.3,22z M20,12.5c-0.8-0.7-2.1-0.7-3,0.2l-4,3.9c-0.9,0.8-1,2.1-0.2,2.9l0.1,0.1l-4,3.8
	l-0.1-0.1c-1.8-1.7-0.6-5.7,2.6-8.8l3.4-3.3C18.1,8.1,22.2,7,24,8.7l0.1,0.1L20,12.5L20,12.5z M25.5,11.2l-3,2.9
	c-0.3,0.3-0.7,0.3-1,0l-0.8-0.8l4-3.8l0.8,0.8C25.8,10.5,25.8,10.9,25.5,11.2z"/>
</svg>
