<?xml version="1.0" encoding="utf-8"?>
<!-- Generator: Adobe Illustrator 21.0.0, SVG Export Plug-In . SVG Version: 6.00 Build 0)  -->
<svg version="1.1" id="圖層_1" xmlns="http://www.w3.org/2000/svg" xmlns:xlink="http://www.w3.org/1999/xlink" x="0px" y="0px"
	 viewBox="0 0 48 48" style="enable-background:new 0 0 48 48;" xml:space="preserve">
<g>
	<g>
		<path d="M24,48C10.8,48,0,37.2,0,24S10.8,0,24,0s24,10.8,24,24S37.2,48,24,48z M24,1C11.3,1,1,11.3,1,24c0,12.7,10.3,23,23,23
			c12.7,0,23-10.3,23-23C47,11.3,36.7,1,24,1z"/>
	</g>
	<path d="M17.6,24c-0.2-0.2-0.2-0.4,0-0.6c0.1-0.2,0.4-0.2,0.6,0l5.4,5.6V17.9c0-0.2,0.2-0.4,0.4-0.4s0.4,0.2,0.4,0.4v11.2l5.4-5.6
		c0.2-0.2,0.4-0.2,0.6,0c0.2,0.2,0.2,0.4,0,0.6l-6.1,6.3l0,0l0,0l0,0l0,0h0v0h0l0,0l0,0l0,0l0,0h0h0l0,0h0v0h0h0l0,0h0h0l0,0l0,0h0
		l0,0h0h0h0h0h0h0h0l0,0h0l0,0h0h0h0l0,0h0v0h0l0,0h0h0l0,0l0,0l0,0h0l0,0v0h0l0,0l0,0l0,0l0,0L17.6,24z"/>
</g>
</svg>
