<?xml version="1.0" encoding="utf-8"?>
<!-- Generator: Adobe Illustrator 21.0.0, SVG Export Plug-In . SVG Version: 6.00 Build 0)  -->
<svg version="1.1" id="圖層_1" xmlns="http://www.w3.org/2000/svg" xmlns:xlink="http://www.w3.org/1999/xlink" x="0px" y="0px"
	 viewBox="0 0 18 9" style="enable-background:new 0 0 18 9;" xml:space="preserve">
<path d="M0.4,5.3C0.3,5.2,0.2,5,0.1,4.9S0,4.7,0,4.5s0-0.3,0.1-0.4C0.2,4,0.3,3.8,0.4,3.7l3-3.3c0.1-0.2,0.3-0.2,0.4-0.3
	C3.9,0,4.1,0,4.2,0c0.2,0,0.3,0,0.5,0C4.8,0,4.9,0.1,5,0.2c0.1,0.1,0.1,0.2,0.2,0.3s0.1,0.3,0.1,0.4c0,0.1,0,0.3-0.1,0.4
	S5,1.6,4.9,1.7L3.3,3.4h13.6c0.3,0,0.6,0.1,0.8,0.3C17.9,3.9,18,4.2,18,4.5s-0.1,0.6-0.3,0.7c-0.2,0.2-0.4,0.3-0.8,0.3H3.2l1.6,1.7
	C5,7.3,5,7.5,5.1,7.6S5.2,7.8,5.2,8c0,0.2,0,0.3-0.1,0.4c0,0.1-0.1,0.2-0.2,0.3C4.8,8.8,4.7,8.8,4.6,8.9C4.4,9,4.3,9,4.2,9
	C4.1,9,3.9,9,3.8,8.9C3.7,8.8,3.5,8.7,3.4,8.6L0.4,5.3z"/>
</svg>
