<?xml version="1.0" encoding="utf-8"?>
<!-- Generator: Adobe Illustrator 21.0.0, SVG Export Plug-In . SVG Version: 6.00 Build 0)  -->
<svg version="1.1" id="圖層_1" xmlns="http://www.w3.org/2000/svg" xmlns:xlink="http://www.w3.org/1999/xlink" x="0px" y="0px"
	 viewBox="0 0 15 13" style="enable-background:new 0 0 15 13;" xml:space="preserve">
<path d="M14.4,5.3H14h-1.2H3.5L7,1.6c0.1-0.1,0.2-0.3,0.2-0.5S7.1,0.8,7,0.6L6.6,0.2C6.5,0.1,6.3,0,6.1,0S5.8,0.1,5.6,0.2L0.2,6
	C0.1,6.1,0,6.3,0,6.5S0.1,6.9,0.2,7l5.4,5.8C5.8,12.9,5.9,13,6.1,13s0.3-0.1,0.5-0.2L7,12.4c0.3-0.3,0.3-0.7,0-1L3.5,7.7h9.3H14h0.4
	C14.7,7.7,15,7.4,15,7V6.8V6.2V6C15,5.6,14.7,5.3,14.4,5.3z"/>
</svg>
