<?xml version="1.0" encoding="utf-8"?>
<!-- Generator: Adobe Illustrator 21.0.0, SVG Export Plug-In . SVG Version: 6.00 Build 0)  -->
<svg version="1.1" id="圖層_1" xmlns="http://www.w3.org/2000/svg" xmlns:xlink="http://www.w3.org/1999/xlink" x="0px" y="0px"
	 viewBox="0 0 13 10" style="enable-background:new 0 0 13 10;" xml:space="preserve">
<path d="M5,10C5,9.9,5,9.9,5.1,9.9L10.1,5L5.1,0.2C5,0.1,5,0.1,4.9,0h2.9c0,0.1,0.1,0.1,0.1,0.2L13,5L7.9,9.9c0,0-0.1,0.1-0.1,0.1H5
	z"/>
<path d="M0,10c0-0.1,0-0.1,0.1-0.1L5.2,5L0.1,0.2C0.1,0.1,0,0.1,0,0h2.9c0,0.1,0.1,0.1,0.1,0.2L8.1,5L3,9.9c0,0-0.1,0.1-0.1,0.1H0z"
	/>
</svg>
