<?xml version="1.0" encoding="utf-8"?>
<!-- Generator: Adobe Illustrator 21.0.0, SVG Export Plug-In . SVG Version: 6.00 Build 0)  -->
<svg version="1.1" id="Layer_1" xmlns="http://www.w3.org/2000/svg" xmlns:xlink="http://www.w3.org/1999/xlink" x="0px" y="0px"
	 viewBox="0 0 168 168" style="enable-background:new 0 0 168 168;" xml:space="preserve">
<style type="text/css">
	.st0{fill:#E96E26;}
</style>
<path class="st0" d="M103.6,110.9c4.7-6.8,5-15.4,1.5-22.2l20.4-34.9c5.5,0.2,11.1-2.4,14.4-7.3l-40.5-28c-3.4,4.9-3.8,11-1.8,16.1
	L72.3,65.9C64.6,65,56.7,68.3,52,75.1l0,0l24.2,16.8c-2.5,3.4-3.3,4.5-5.8,8.1c-3.4,5-3.5,5.2-6.6,10c-3.2,4.8-7.6,11.8-10.1,15.7
	c-2.5,3.9-2,4-3.4,6.3c-1.3,2.3-2,3.7-2,3.7s1-1.2,2.7-3.2c1.7-2.1,1.9-1.7,4.7-5.4c2.8-3.7,7.8-10.3,11.2-14.9
	c3.4-4.6,3.5-4.7,7-9.7c2.5-3.6,3.2-4.7,5.5-8.3L103.6,110.9L103.6,110.9z"/>
</svg>
